<svg version="1" xmlns="http://www.w3.org/2000/svg" width="928" height="928" viewBox="0 0 696 696"><path d="M211.5 25.6c-3.3.7-6.9 1.5-8 1.8-3.4.7-10.1 3.3-13.6 5.2-1.9 1-3.7 1.7-4.1 1.6-.5-.1-.8.2-.8.7 0 .5-1.3 1.4-3 2.1-1.6.7-3 1.6-3 2.1s-.6.9-1.3.9c-1.7 0-16.1 14.2-18.4 18.1-1 1.6-2.1 2.9-2.5 2.9-.4 0-.8.6-.8 1.4 0 .8-.3 1.6-.7 1.8-.9.4-5.2 8.9-5.2 10.2.1.5-.3 1.2-.8 1.5-1.1.8-5.2 14.2-5.9 19.6-.6 4.8-.7 23.2 0 26 2.2 9.5 4.1 16.1 4.8 16.6.6.3.9.9.8 1.3-.5 3 9.2 18.7 16.3 26.3 25.7 27.3 66.1 34.4 99.3 17.3 5-2.5 9.7-5.2 10.5-5.8 9.1-7.5 12.1-10.4 16.2-15.6 2.7-3.4 5.5-6.9 6.3-7.9.8-.9 1.4-2.1 1.4-2.6s.7-1.4 1.5-2.1c.9-.7 1.3-1.5 1-1.8-.3-.3.1-1.5.8-2.6 1.4-2.3 5-12.3 6.2-17.1 1.6-6.7 1.9-9.4 1.8-18.5 0-15.9-1.8-24.2-8.4-37.5-2.7-5.5-5.9-11.3-7.1-12.9-4.7-6-18.8-19.6-20.4-19.6-.3 0-2.4-1.3-4.7-2.9-4-2.7-15.9-7.9-19.8-8.6-1.1-.2-2.3-.6-2.8-.9-3.3-2.1-27.7-2.7-35.6-1z"/><path d="M324.6 37.7c-.2.2-3.2.6-6.7.9-3.5.2-6.5.6-6.7.9-.2.2 1.8 3.6 4.6 7.7 8.1 12.1 14.4 26.8 16.7 38.8.3 1.4.7 3.6 1.1 5 .3 1.4.7 8.1.9 15 .8 34.3-14.5 66.1-42.5 88.1-4.3 3.4-15.8 10.3-21 12.6-1.4.6-4.2 1.8-6.3 2.8-2.1.9-4.5 1.8-5.5 2-.9.1-3.7.8-6.2 1.5-16.3 4.4-31.3 4.5-51.5.5-9.9-2-26.8-9.8-37-17-7.3-5.2-16.5-14-22-21-2.2-2.8-4.2-5.2-4.5-5.5-1.7-1.7-9.5-16.7-12.2-23.4-1.9-4.9-2.5-6.9-2.7-9.1-.1-.6-.5-1.7-1.1-2.5-.9-1.5-4.7 2.1-14.3 13.4-2.3 2.7-5 5.8-5.9 6.8-1 1-1.8 2-1.8 2.3 0 .3-.9 1.5-1.9 2.6-4.8 5.2-20.7 28.9-26.7 39.9-1 1.9-2.1 3.7-2.4 4-1.4 1.4-13.2 26.8-16.6 36-2.9 7.6-7.5 20.9-7.9 23-.2.8-.4 1.5-.5 1.5-.1 0-.3.7-.5 1.5s-1.3 5.1-2.5 9.5c-2.1 8.1-3 12.2-3.5 16.2-.2 1.2-.5 2.6-.8 3-.3.5-.9 3.6-1.2 6.8-.4 3.3-.9 6.2-1 6.5-.4.7-1.7 12.2-1.9 17-.1 2-.4 4-.7 4.5-.7 1.3-.3 45.8.5 54.5.5 6.2 2.2 19 3.2 23.7.2 1.3.6 3.5.9 5 2 10.6 2.9 14.7 4.7 21.3 1.1 4.1 2.1 7.9 2.2 8.5 1 4.9 10.1 30.3 14.1 39 7.5 16.9 24.4 47.5 26.7 48.3.4.2.8.9.8 1.6 0 .7.9 2.1 2 3.1s2 2.4 2 3.2c0 .7.4 1.3.8 1.3s1.5 1.3 2.5 2.9c3.7 6.2 20 25.2 31.8 37 17.4 17.5 43.5 38 60.4 47.5 1.7.9 4.5 2.6 6.4 3.7C199.1 635 228 649 230 649c.6 0 2.9.9 5.3 1.9 4.7 2.2 21.2 7.9 26.7 9.2 1.9.4 6.2 1.5 9.5 2.4 7.7 2 15 3.5 20 4.1 2.2.2 4.7.7 5.5 1 1.4.5 3.4.8 12 1.9 15.9 2 52.2 2.6 67 1.2 14-1.4 21.5-2.3 28-3.7 2.5-.5 6.3-1.2 8.5-1.6 2.2-.4 4.2-.8 4.5-.9.3-.1 2.3-.5 4.5-1s4.2-1 4.5-1c.3-.1 2.5-.7 5-1.4s5.2-1.4 6-1.6c2.8-.6 23.5-7.8 26.2-9.2 1.5-.7 3.1-1.4 3.5-1.4 3.6-.6 33.5-14.6 34.1-16.2.2-.4.8-.7 1.4-.7 1.7 0 33.1-19.8 34.8-22 .3-.3 3.1-2.4 6.2-4.7 3.2-2.2 5.5-4.3 5.1-4.7-.3-.3.1-.6.9-.6.9 0 1.8-.3 2-.8.2-.4 3.2-3.2 6.7-6.2 10-8.5 29.8-28.8 34.6-35.5 1.1-1.5 2.7-3.5 3.6-4.4.9-.9 3.6-4.3 6-7.6s4.6-6.2 4.9-6.5c1.1-.9 11.6-17.5 15.9-24.8 5.8-10 14.1-26.8 18.6-37.5 6.4-15.5 10.4-27.5 15-44.7 1.1-4.5 6.4-32.3 6.9-37 2.7-23.4 2.8-59.6.1-79.5-1.4-10.7-1.8-13.2-2.2-15-.2-1.1-.6-3.4-.8-5-.6-3.3-.9-4.8-1.8-8.5-.4-1.4-.9-3.9-1.2-5.5-.4-1.7-.7-3.5-.9-4-.1-.6-.8-3-1.5-5.5s-1.5-5.2-1.8-6c-.3-.8-.7-2.2-.8-3-.3-2.3-6.1-19.1-9-26.2-8.2-19.9-17.5-37.9-28-54.3-4.2-6.6-15.9-23.1-17.8-25-.7-.7-2.8-3.2-4.7-5.6-8.1-10.2-23.6-26.1-36-37C521.9 84 474.8 59 430 47.5c-.8-.2-1.5-.4-1.5-.5 0-.1-1.3-.4-3-.6-1.6-.3-4.3-.9-6-1.4-3.8-1.2-8.8-2.2-17-3.4-2.2-.3-5.1-.8-6.5-1.1-2.5-.6-5.7-.9-18-2.2-6.8-.7-52.8-1.2-53.4-.6zm172.9 215.7c13.5 1.5 25.7 5.8 37.3 13.3 6.2 3.9 20.2 17.8 20.2 20 0 .7.5 1.3 1 1.3.6 0 1 .6 1 1.4 0 .8.3 1.6.8 1.8.7.3 6.6 11.9 8.3 16.3 3 8.1 5.5 18 6.5 26.5.3 2.5.9 6.7 1.3 9.5.3 2.7.6 41 .6 85v79.9l-38.7.4c-21.4.2-38.8 0-38.9-.5 0-.4-.1-34.6-.3-75.8-.2-50.5-.6-76.8-1.4-80.5-.6-3-1.3-6.4-1.6-7.5-2.9-13.4-16.6-26.9-28.1-27.7-2-.1-3.8-.6-4.1-1-.3-.4-1-.5-1.7-.3s-3.4.6-6.2.9c-17.8 1.7-31.3 14.1-37.3 34-.4 1.1-.8 36.7-.9 79.1-.2 42.3-.5 77.4-.7 78-.2.6-13.7.9-38.2.9-20.9-.1-38.2-.2-38.5-.3-.3-.1-.6-43.4-.7-96.4 0-52.9-.3-105-.7-115.7-.3-10.7-.6-23.6-.8-28.5l-.2-9h67l.1 3c.2 2.7.8 9.8 1.8 20.5.2 1.9.4 5.1.5 7.2.1 2.8.5 3.6 1.8 3.4.9-.2 2.2-1.1 2.7-2.1 1.4-2.5 7.1-8.9 11.9-13.4 13.9-13 34.7-22.3 53.2-23.8 3.9-.3 7.1-.6 7.2-.7.4-.3 10.2.2 15.8.8zM274.7 384v125H197V259h77.7v125z"/></svg>